<?xml version="1.0" standalone="no"?>
<!DOCTYPE svg PUBLIC "-//W3C//DTD SVG 20010904//EN"
 "http://www.w3.org/TR/2001/REC-SVG-20010904/DTD/svg10.dtd">
<svg version="1.0" xmlns="http://www.w3.org/2000/svg"
 width="676.000000pt" height="369.000000pt" viewBox="0 0 676.000000 369.000000"
 preserveAspectRatio="xMidYMid meet">

<g transform="translate(0.000000,369.000000) scale(0.100000,-0.100000)"
fill="#000000" stroke="none">
<path d="M3235 2996 c-28 -12 -65 -26 -82 -29 -18 -4 -67 -22 -108 -42 -42
-19 -79 -35 -84 -35 -4 0 -26 -12 -47 -26 -21 -15 -44 -27 -50 -28 -22 -3 -45
-29 -39 -44 3 -9 0 -12 -9 -9 -10 4 -13 1 -9 -9 3 -8 11 -13 19 -10 7 3 32 10
56 16 24 7 49 17 56 22 6 6 12 8 12 5 0 -3 39 12 88 35 48 22 116 53 152 69
86 39 96 45 92 59 -2 8 3 10 13 6 13 -5 14 -2 4 17 -6 12 -12 23 -13 24 -1 1
-24 -8 -51 -21z m-388 -191 c0 -8 -4 -12 -9 -9 -5 3 -6 10 -3 15 9 13 12 11
12 -6z"/>
<path d="M3725 2700 c33 -33 61 -60 62 -60 23 0 -88 119 -112 120 -5 0 17 -27
50 -60z"/>
<path d="M2775 2740 c-3 -5 -15 -10 -26 -10 -16 0 -19 -8 -21 -57 0 -32 -2
-71 -4 -88 -8 -95 -3 -858 6 -875 10 -19 13 -19 47 -5 20 9 38 17 39 18 2 1
-1 20 -6 42 -10 46 -15 958 -5 974 3 6 -1 11 -9 11 -8 0 -18 -4 -21 -10z m2
-52 c-3 -8 -6 -5 -6 6 -1 11 2 17 5 13 3 -3 4 -12 1 -19z"/>
<path d="M2923 2682 c-9 -6 -19 -198 -14 -280 1 -22 2 -23 139 -20 l137 3 -3
72 c-2 66 -5 75 -36 109 -19 21 -32 43 -30 49 3 6 -2 18 -11 25 -8 7 -15 18
-15 25 0 8 -12 16 -27 19 -37 7 -127 6 -140 -2z m174 -54 c6 -1 9 -7 6 -14 -2
-6 0 -15 6 -19 8 -4 7 -11 -1 -20 -43 -48 -46 -55 -23 -55 23 0 55 -37 55 -65
0 -25 -1 -25 -90 -25 -81 0 -90 2 -90 19 0 24 37 71 56 71 13 0 13 3 0 22 -33
46 -5 105 44 93 14 -3 30 -6 37 -7z"/>
<path d="M2642 2568 c-7 -7 -12 -22 -12 -35 0 -13 -6 -23 -14 -23 -8 0 -18 -5
-22 -12 -5 -8 -2 -9 10 -5 27 11 16 -25 -12 -39 -13 -6 -28 -16 -33 -21 -12
-12 -13 -463 -1 -475 7 -7 21 -2 42 13 l31 24 -2 244 c-2 241 -2 245 19 259
15 10 22 25 22 48 0 36 -8 42 -28 22z"/>
<path d="M3275 2540 c7 -12 74 -13 92 -2 6 4 -13 8 -43 9 -35 2 -53 -1 -49 -7z"/>
<path d="M3270 2445 c0 -12 14 -15 69 -15 67 0 98 11 65 24 -9 3 -42 6 -75 6
-46 0 -59 -3 -59 -15z"/>
<path d="M3308 2363 c23 -2 59 -2 80 0 20 2 1 4 -43 4 -44 0 -61 -2 -37 -4z"/>
<path d="M3116 2255 c-3 -13 -19 -31 -35 -39 -25 -13 -31 -13 -47 -1 -26 19
-27 19 -58 -12 -25 -24 -25 -27 -10 -44 24 -27 3 -77 -34 -81 -23 -3 -27 -8
-30 -41 -3 -35 0 -39 27 -50 37 -13 48 -50 27 -83 -15 -21 -14 -25 8 -50 l23
-28 77 62 c42 33 83 65 92 70 23 13 8 32 -25 32 -18 0 -34 -8 -44 -22 -11 -17
-18 -20 -26 -12 -9 8 -3 32 20 93 41 104 60 106 98 11 14 -36 30 -71 35 -79 6
-10 3 -18 -8 -27 -17 -12 -16 -16 15 -54 19 -23 50 -48 69 -56 34 -15 36 -14
57 13 21 26 21 29 7 51 -13 20 -14 29 -4 53 7 16 20 29 30 29 22 0 30 9 23 26
-4 12 -8 12 -21 2 -12 -10 -14 -10 -8 0 4 6 3 12 -3 12 -6 0 -8 7 -5 15 7 18
-12 20 -20 3 -4 -7 -4 -3 -2 10 4 20 -4 27 -26 23 -4 0 -14 14 -22 32 -8 17
-28 45 -45 60 -17 16 -31 32 -31 37 0 4 -9 10 -20 13 -11 3 -20 14 -20 25 0
12 -9 22 -22 26 -34 9 -35 8 -42 -19z m152 -212 c-2 -70 -6 -88 -18 -88 -12 0
-16 18 -18 88 -3 82 -2 87 18 87 20 0 21 -5 18 -87z"/>
<path d="M3437 2224 c-12 -12 -8 -24 8 -24 15 0 18 -6 19 -50 1 -18 7 -25 21
-26 11 -1 25 -2 32 -3 6 -1 15 -10 18 -21 6 -19 45 -29 45 -12 0 4 3 17 6 30
5 18 2 22 -18 22 -26 0 -83 37 -108 71 -9 11 -19 17 -23 13z"/>
<path d="M2664 1971 c-36 -34 -74 -81 -74 -91 0 -5 -16 -24 -35 -41 -19 -18
-35 -38 -35 -46 0 -7 -4 -13 -8 -13 -16 0 -34 -81 -27 -122 9 -51 56 -105 103
-118 46 -12 124 -13 188 -1 57 11 213 93 297 157 33 24 63 44 67 44 7 0 44
-48 157 -202 15 -21 30 -38 35 -38 24 0 282 283 284 311 2 30 -12 31 -44 4
-16 -14 -34 -25 -40 -25 -5 0 -16 -10 -24 -22 -13 -20 -17 -21 -32 -9 -14 12
-21 8 -58 -25 -24 -21 -48 -45 -55 -53 -11 -14 -17 -10 -51 29 -69 79 -142
173 -142 182 0 19 -25 5 -99 -56 -43 -35 -92 -72 -110 -82 -17 -10 -31 -21
-31 -25 0 -4 -11 -10 -25 -13 -14 -4 -25 -11 -25 -17 0 -6 -4 -7 -10 -4 -16
10 -11 -7 6 -19 14 -11 11 -15 -23 -37 -21 -14 -49 -29 -63 -32 -14 -3 -47
-11 -73 -17 -64 -16 -128 1 -162 42 -21 25 -25 40 -25 94 0 37 4 63 9 60 5 -4
7 2 4 13 -3 10 1 22 8 27 9 5 11 2 6 -9 -3 -10 -2 -17 2 -17 5 0 26 30 46 68
21 37 49 79 63 95 29 30 26 37 -4 8z"/>
<path d="M3748 1863 c-36 -40 -58 -75 -57 -93 0 -13 1 -13 6 0 4 8 24 39 45
68 43 58 45 66 6 25z"/>
<path d="M3485 1799 c-4 -6 -3 -15 3 -21 6 -6 11 -4 15 6 7 18 -9 31 -18 15z"/>
<path d="M3832 1723 c0 -5 -2 -16 -7 -26 -11 -25 -3 -28 21 -8 21 17 21 18 3
29 -11 7 -18 9 -17 5z"/>
<path d="M2832 1667 c-9 -11 -10 -17 -2 -22 15 -9 23 -1 18 21 -3 15 -4 16
-16 1z"/>
<path d="M3717 1655 c-4 -8 -3 -16 1 -19 4 -3 9 4 9 15 2 23 -3 25 -10 4z"/>
<path d="M3730 1617 c0 -2 14 -13 30 -25 34 -25 38 -24 13 4 -16 17 -43 30
-43 21z"/>
<path d="M3645 1560 c-22 -16 -43 -29 -48 -30 -4 0 -41 -21 -82 -46 -93 -56
-173 -94 -200 -94 -32 0 -176 64 -272 120 -84 50 -86 51 -121 37 -20 -8 -38
-19 -39 -24 -8 -23 219 -151 344 -193 l91 -30 75 29 c78 30 250 134 304 184
31 29 31 31 15 53 -9 13 -19 23 -22 23 -3 0 -23 -13 -45 -29z"/>
<path d="M4071 1501 c13 -11 26 -17 28 -15 5 5 -30 33 -43 34 -4 0 2 -9 15
-19z"/>
<path d="M4110 1462 c0 -15 40 -52 57 -52 19 0 16 20 -4 27 -10 3 -26 13 -35
21 -11 9 -18 11 -18 4z"/>
<path d="M3302 1271 c-11 -7 -10 -10 3 -15 32 -12 75 -7 75 9 0 17 -55 21 -78
6z"/>
<path d="M4420 744 l0 -54 40 0 40 0 0 54 0 54 -40 0 -40 1 0 -55z"/>
<path d="M4693 779 c5 -16 -22 -22 -33 -7 -3 4 -12 3 -20 -2 -22 -14 7 -39 71
-61 61 -22 102 -23 141 -6 27 12 27 13 10 35 -16 21 -22 22 -62 13 -29 -6 -46
-7 -48 -1 -2 6 -12 10 -22 10 -11 0 -24 8 -30 18 -9 14 -11 14 -7 1z"/>
<path d="M4946 711 c-5 -8 3 -26 21 -49 35 -43 46 -48 67 -27 12 13 14 21 5
36 -6 12 -17 18 -25 15 -10 -4 -12 -2 -8 6 5 8 2 9 -10 5 -14 -6 -17 -3 -12 9
5 14 4 15 -8 5 -11 -9 -15 -9 -18 1 -3 9 -6 9 -12 -1z"/>
<path d="M1958 523 c7 -3 16 -2 19 1 4 3 -2 6 -13 5 -11 0 -14 -3 -6 -6z"/>
</g>
</svg>
